<?xml version="1.0" standalone="no"?>
<!DOCTYPE svg PUBLIC "-//W3C//DTD SVG 20010904//EN"
 "http://www.w3.org/TR/2001/REC-SVG-20010904/DTD/svg10.dtd">
<svg version="1.0" xmlns="http://www.w3.org/2000/svg"
 width="512.000000pt" height="512.000000pt" viewBox="0 0 512.000000 512.000000"
 preserveAspectRatio="xMidYMid meet">
<metadata>
Created by potrace 1.16, written by Peter Selinger 2001-2019
</metadata>
<g transform="translate(0.000000,512.000000) scale(0.100000,-0.100000)"
fill="#000000" stroke="none">
<path d="M2438 4870 c-137 -25 -123 -17 -988 -522 -660 -386 -677 -396 -760
-479 -99 -97 -158 -198 -190 -325 -19 -74 -20 -115 -20 -984 0 -869 1 -910 20
-984 38 -150 139 -302 258 -390 48 -35 1396 -828 1482 -871 104 -52 186 -70
325 -69 166 1 234 22 432 134 152 86 176 110 189 187 8 53 -21 121 -67 154
-27 19 -47 24 -94 24 -57 0 -68 -4 -193 -77 -73 -42 -155 -82 -184 -88 -69
-17 -176 -7 -238 22 -27 13 -361 205 -741 428 -746 436 -775 456 -824 563 -14
29 -29 84 -35 122 -12 87 -13 1592 -1 1689 12 91 58 183 120 238 57 51 1443
865 1516 890 64 22 166 22 230 0 73 -25 1459 -839 1516 -890 62 -55 108 -147
120 -238 12 -97 11 -1602 -1 -1689 -20 -140 -83 -226 -230 -314 -79 -47 -99
-64 -118 -101 -59 -115 19 -240 149 -240 48 0 169 63 262 136 118 92 210 234
248 382 18 72 19 119 19 982 0 869 -1 910 -20 984 -40 157 -143 308 -274 400
-59 41 -1389 823 -1471 864 -113 57 -313 85 -437 62z"/>
</g>
</svg>
